<svg width="1236" height="84" viewBox="0 0 1236 84" fill="none" xmlns="http://www.w3.org/2000/svg">
<path d="M0 84V0H60V12H72V24H84V60H72V72H60V84H0ZM24 72H48V60H60V24H48V12H24V72ZM108 84V72H96V36H108V24H168V36H180V60H120V72H168V84H108ZM120 48H156V36H120V48ZM228 84V72H216V60H204V24H228V60H252V24H276V60H264V72H252V84H228ZM300 84V72H288V36H300V24H360V36H372V72H360V84H300ZM312 72H348V36H312V72ZM396 84V72H384V24H408V72H444V24H468V84H396ZM516 36H528V48H516V84H492V24H516V36ZM564 24V36H528V24H564ZM672 84V0H756V12H696V36H744V48H696V72H756V84H672ZM804 84V72H792V60H780V24H804V60H828V24H852V60H840V72H828V84H804ZM876 84V72H864V36H876V24H936V36H948V72H936V84H876ZM888 72H924V36H888V72ZM972 84V72H996V12H984V0H1020V72H1044V84H972ZM1092 84V72H1080V60H1068V24H1092V60H1116V24H1140V60H1128V72H1116V84H1092ZM1164 84V72H1152V36H1164V24H1224V36H1236V60H1176V72H1224V84H1164ZM1176 48H1212V36H1176V48Z" fill="black"/>
</svg>
